<svg viewBox="0 0 1600 450" xmlns="http://www.w3.org/2000/svg" xmlns:bx="https://boxy-svg.com"><defs><linearGradient gradientUnits="userSpaceOnUse" x1="256.52" y1="7.21" x2="256.52" y2="223.92" id="gradient-0"><stop offset="0" stop-color="#ffdb0f"/><stop offset="1" stop-color="#756300"/></linearGradient><linearGradient gradientUnits="userSpaceOnUse" x1="244.89" y1="9.06" x2="244.89" y2="348.96" id="gradient-1"><stop offset="0" stop-color="#0ffbff"/><stop offset="1" stop-color="#007375"/></linearGradient><linearGradient gradientUnits="userSpaceOnUse" x1="286.57" y1="8.17" x2="286.57" y2="434.62" id="gradient-2"><stop offset="0" stop-color="#23ff0f"/><stop offset="1" stop-color="#097500"/></linearGradient><linearGradient gradientUnits="userSpaceOnUse" x1="216.68" y1="41.32" x2="216.68" y2="379.94" id="gradient-3" gradientTransform="matrix(1 0 0 .96346 0 1.51)"><stop offset="0" stop-color="#ff0f0f"/><stop offset="1" stop-color="#750000"/></linearGradient><clipPath id="clip0_2_2"><path fill="#fff" d="M0 0h500v467H0z"/></clipPath></defs><g clip-path="url(#clip0_2_2)"><path fill="none" bx:origin="0.5 0.5" d="M-4.45 0h500l8.09 454.19h-500z"/><path fill-rule="evenodd" clip-rule="evenodd" d="M154.29 42.1c-34.43 3.75-60.7 12-79.44 24.96-4.11 2.84-8.06 5.91-8.77 6.82-1.17 1.5-1.12 1.52.58.18 1.8-1.42.82-.83-.02 3.47-1.62 8.26-.03 25.41 2.07 32.3 1.07 3.5 2.4 6.1 3 5.87.6-.24 5.58-3.42 11.08-7.09 25.17-16.77 55.4-27.39 96.48-33.87 11.68-1.84 17.8-2.13 45.02-2.14 27.13-.01 33.79.3 48 2.23 30.88 4.2 58.54 10.79 90.75 21.6 8.94 3 16.23 5.16 16.22 4.78-.04-.95-10.1-8.05-19.05-13.43-33.37-20.06-81.95-36.55-129.42-43.93-14.86-2.31-61.5-3.37-76.5-1.74Zm70.5 67.6c-34.95 1.68-70.08 8.3-105.4 19.84-16.24 5.3-31.1 11.29-31.1 12.52 0 1.33 11.9 11.6 19.81 17.1 4.03 2.8 11.39 7.24 16.37 9.87l9.05 4.78 12.2-6.38c33.89-17.68 68.38-28.06 112.63-33.9 15.52-2.05 47.94-3.82 56.25-3.08 4.7.42 8.67.13 12.83-.95 8.27-2.14 26.94-7.5 26.94-8.38 0-1.6-39.68-7.1-62.58-9.04-15.16-1.28-51.47-3.1-56.9-2.85l-10.1.47Zm158.84 23.89c-1.92 1.6-4.39 4.33-4.11 4.56.27.22 8 1.58 13.77 3.01 9.52 2.36 10.66 2.56 12.22 1.16.95-.85 1.52-1.9 1.25-2.32-.38-.62-11.56-6.23-18.46-8.88-.65-.25-2.76.86-4.67 2.47Zm-81.84 35.48c-16.93 5.99-42.69 16.11-42.22 16.59.7.7 20.58-4.62 31.72-8.49 21.06-7.3 35.32-14.1 30.5-14.9-.72-.1-12.3 4.07-20 6.8Zm-265.07 8.22c-7.06 7.54-8.9 9.6-9.48 12.05-1.3 5.55-1.11 18.97 0 25.3 2.47 14.22 11.32 31.49 20.9 40.77l3.99 3.88 2.71-5.38c6.15-12.15 17.87-28.23 29.34-40.24 4.04-4.23 7.46-6.92 6.42-7.3-9.7-3.56-27.07-15.82-37.85-26.26-4.69-4.53-8.4-9.87-8.7-9.87-.3 0-5.14 4.7-7.33 7.05Zm251.32 16.12c-28.78 13.66-54.7 23.16-86.16 27.02l-11.9 1.46-8.45 5.73c-16.08 10.93-28.83 21.83-48 41.03-10.58 10.61-19.8 20.66-19.8 21.19 0 2.73 42.76 7.19 64.23 7.2h7.16l6.82-8.75c26.04-33.4 58.73-64.88 94.87-89.38 16.55-11.2 24.04-20.19 11.12-12.4l-9.9 6.9ZM104.07 349.77c5.77 6.9 15.16 15.48 22.03 20.13 6.86 4.65 17.17 10.52 17.56 10 .16-.2.87-3.06 1.58-6.36.7-3.3 2.58-9.82 4.17-14.5 1.58-4.67 5.94-11.48 5.94-11.83 0-.35-7.16-.1-14.17-.13-10.98-.02-32.92-2.11-41.13-4.11-2.28-.56.12 2.14 4.02 6.8Z" fill="url(#gradient-3)" fill-opacity=".53"/><path d="M476.9 15.27c-11.2 18.5-29.58 40.44-46.28 55.54-39.2 35.5-84.2 57.1-135 64.7-5.7.9-10.5 1.7-10.6 1.8-.1.1 5.3 4.2 12.1 9 6.7 4.9 14.7 11 17.6 13.6l5.4 4.8-3.1 1.6c-12.8 6.6-39.9 15.4-59 19.1-46.4 8.9-87.6 4.3-127.1-14.4-32.8-15.6-54-37.1-62.3-63.5-2.5-8-3-21.8-1.1-29.9.6-2.7.53-4.12.83-5.48.43-1.51-15.33 12.68-20.33 18.68-6.3 7.6-13.7 21.8-15.9 30.7-2 7.8-1.9 22.6.1 29.6 3.1 10.6 8.3 18.9 17.9 28.4 22.1 22.3 53.36 37.38 91.06 41.78 13.8 1.5 23.53 5.08 70.59 0 31.12-3.36 55.65-16.38 81.65-29.38 9.7-4.8 21.9-11.5 27-14.8 5.1-3.4 9.7-6.1 10.2-6.1 3.3 0 32-18.8 47-30.9 33.3-26.8 69.4-69.9 92-110.1 3-5.2 10.53-17.67 10.68-18.15.8-2.53.99-2.92 1.15-3.88-.19.32-1.86 2.69-4.56 7.29Z" fill="url(#gradient-0)"/><path d="M476.55 21.71c-3.1 8-13.13 40.5-23.43 73.8-14 45.4-23.1 77.7-33.1 117.4l-6.8 27.3-4.83 13.99c-17.5 43.2-43.07 86.41-80.77 111.01-46.3 30.2-103.9 38.5-159.2 22.9-26.1-7.4-44.83-19.9-62.53-38.3-10-10.4-14.58-15.43-15.08-8.53-.8 10.7 9.11 33.23 18.31 45.33 14.4 18.7 30.66 34.2 67.35 42.3 33.6 7.4 65.22 7.8 94.13 0 68.7-18.3 120.42-86.4 146.92-166.6l4.8-14.2 3.9 4c7.4 7.7 25.5 24.1 26.1 23.5.3-.3-.2-4.5-1.1-9.3-3-16.8-3.9-34.5-3.3-67.2.7-42.1 3.3-65.5 11.3-102.1 5-22.4 12.73-54.75 16.8-68 1.59-5.15 5.48-20.78 5.38-20.97-.2-.1-4.45 12.67-4.85 13.67Z" fill="url(#gradient-2)"/><path d="M440.56 86.06c-34.52 60.06-47.84 69.75-82.67 94.52-4.84 3.45-10.2 7.09-10.2 7.14 0 .2 16.03 12.4 21.03 16.4l-10.1 10.26c-42.4 40.5-82.3 71.23-143.5 80.23-22.4 3.4-61.2 2.4-88.5-2.2-45.8-7.7-79-28.7-93.1-58.7-6-12.9-8.7-31.8-5.9-41.7l.61-4.74-2.53 3.07c-4.1 4.9-12.88 25.57-15.08 34.07-4.1 16.3-4.3 36.6-.5 51.8 2.3 9.1 9.6 23.4 15.9 30.9 7.1 8.6 16.6 15.7 30.1 22.4 10.1 5 30.3 12.5 33.7 12.5.8 0 6.55 1.19 6.55 1.79 0 .5 10.65 2.41 20.55 3.71 13.6 1.7 40.4 2 54.5.4 41.1-4.4 82.4-19.3 117.2-42.3 30.7-20.3 62.96-53.02 87.86-83.32 3.3-3.9 6.16-7.61 6.56-7.61.3 0 21.72 17.48 21.72 17.48s.66-6.82 2.15-13.38c10.64-46.69 16.69-77.05 42.51-127.77 4.51-8.86 32.57-81.92 32.02-83-.3-.3-35.33 68.4-40.88 78.05Z" fill="url(#gradient-1)"/></g><g id="logo" transform="matrix(1.52934 0 0 1.52934 443.8 -45.54)"><path fill="none" stroke="#071722" id="svg_4" stroke-linejoin="undefined" stroke-linecap="undefined" stroke-width="2.75" d="M514 35v280"/><path fill="none" stroke="#071722" id="line-1" stroke-linejoin="undefined" stroke-linecap="undefined" stroke-width="2.75" d="M256.73 35v279.96"/><g stroke="#000" fill="none" stroke-width=".94" font-size="12" fill-rule="evenodd" stroke-linecap="round" id="svgGroup"><path fill="#071722" stroke="null" id="svg_7" vector-effect="non-scaling-stroke" d="m223.88 39.01.92 56.19a1.25 1.21 0 0 1-.67 1.08q-.63.37-1.86.48-1.45.13-2.22-.26a1.5 1.46 0 0 1-.77-.85q-3.21-24.53-17.92-37.24-14.7-12.7-38.6-12.7H139.3a111.3 107.98 0 0 0-8.83.3q-8.54.67-13.78 2.73a18.05 17.5 0 0 0-4.28 2.31q-6.68 5.02-7.1 18.67a64.53 62.6 0 0 0-.02 1.85v97.2h42.28a118.53 115 0 0 0 12.93-.63q15.19-1.62 23.61-7.4a26.87 26.07 0 0 0 11.31-18.33 40.78 39.57 0 0 0 .41-5.74.61.6 0 0 1 .34-.51q.62-.38 2.42-.38 2.04 0 2.57.49a.55.54 0 0 1 .19.4l-.46 37.46a680.97 660.66 0 0 0 .03 6.27q.06 6.03.24 10.29a144.41 140.1 0 0 0 .19 3.5l.46 22.3a.61.6 0 0 1-.33.51q-.63.38-2.43.38-2.04 0-2.57-.49a.55.54 0 0 1-.19-.4 51.65 50.1 0 0 0-1.14-10.88q-2.54-11.12-10.8-17.44-11.2-8.55-34.87-9.1a138.26 134.14 0 0 0-3.29-.04h-40.9v96.76q0 11.92 2.72 18.4a18.9 18.34 0 0 0 1.18 2.34q3.91 6.47 14.94 9.14a66.96 64.96 0 0 0 7.11 1.28q10.55 1.4 27.82 1.4a.61.6 0 0 1 .53.32q.4.6.4 2.35 0 1.99-.51 2.5a.55.54 0 0 1-.42.18 1303.49 1264.6 0 0 1-8.9-.03q-8.65-.06-15.1-.23a354.98 344.4 0 0 1-5.41-.19l-43.2-.44-32.18.44a246.1 238.77 0 0 1-4.8.2q-5.39.17-12.61.22a905.55 878.54 0 0 1-6.95.03.61.6 0 0 1-.53-.32q-.39-.61-.39-2.36 0-1.98.5-2.5a.55.54 0 0 1 .42-.17q17 0 25.05-2.23a19.74 19.15 0 0 0 5-2.1 14.23 13.8 0 0 0 5.8-6.6q2.33-5.45 2.69-15.82a121.83 118.2 0 0 0 .07-4.02V71.12q0-13.38-2.76-19.62a15.3 14.85 0 0 0-7.67-7.64 21.81 21.16 0 0 0-2.67-1.06 36.3 35.22 0 0 0-4.94-1.18q-5.42-.96-13.35-1.2a177.52 172.22 0 0 0-5.38-.07q-1.23 0-1.36-2.1a9.28 9 0 0 1-.02-.57q0-2.68 1.38-2.68h187.52a7.44 7.22 0 0 1 1.74.18q2.32.54 2.76 2.73a5.98 5.8 0 0 1 .1 1.1h0z"/></g><g stroke="#000" fill="none" stroke-width=".94" font-size="12" fill-rule="evenodd" stroke-linecap="round" id="svgGroup"><path fill="#071722" stroke="null" id="svg_9" vector-effect="non-scaling-stroke" d="m297.02 289.85-4.94-61.56a2.62 2.28 0 0 1-.07-.3q-.16-1.22 1.54-1.7a5.88 5.12 0 0 1 .75-.16 6.62 5.76 0 0 1 .46-.05q2.19-.21 2.7 1.19a2.83 2.46 0 0 1 .06.16 215.42 187.5 0 0 0 15.13 31.75 170.22 148.16 0 0 0 18 23.78 69.54 60.52 0 0 0 26.23 17.8 72.03 62.7 0 0 0 29.17 5.01 70.83 61.65 0 0 0 18.25-1.95 54.59 47.51 0 0 0 20.57-9.02 38.46 33.48 0 0 0 11.93-15.04q2.34-5.65 3.18-12.64a91.27 79.44 0 0 0 .47-8.27q0-18.94-9.89-33.15a102.96 89.61 0 0 0-20.1-21.07 96.57 84.06 0 0 0-3.89-2.82 242.89 211.4 0 0 0-10.83-6.99q-5.71-3.5-12.46-7.29a573.72 499.35 0 0 0-14.54-7.89q-23-12.77-36.55-21.96a229.02 199.34 0 0 1-.3-.2q-13.6-9.26-23-22.82a65.06 56.63 0 0 1-8.65-21.83 83.1 72.33 0 0 1-.75-9.81 77.95 67.85 0 0 1 3-19.17 63.94 55.65 0 0 1 10.6-18.28A80.86 70.38 0 0 1 347.35 43a95.65 83.26 0 0 1 1.37-.47q22-7.54 46.24-7.54a166.4 144.83 0 0 1 34.78 3.05 136.46 118.77 0 0 1 25.06 6.85q7.42 2.59 7.42 7.75l2.48 53.81q0 1.72-2.48 2.15a5.5 4.79 0 0 1-.41.06q-2.1.22-2.55-1.35a123.64 107.62 0 0 0-17-36.21A147.46 128.34 0 0 0 436 63.2q-17.8-20.88-50.45-20.88a66.12 57.55 0 0 0-15.68 1.53 44.1 38.38 0 0 0-22.65 11.38 51.25 44.6 0 0 0-13.11 25.47 69.24 60.26 0 0 0-.49 7.25 63.48 55.25 0 0 0 2.58 16 54.14 47.12 0 0 0 6.82 12.63q9.4 12.27 22.75 21.1 12.74 8.41 34.95 20.17a844.4 734.95 0 0 0 2.14 1.13 798.74 695.2 0 0 1 14.47 7.98q14.8 8.38 24.81 15.02a249.75 217.38 0 0 1 .04.03A105 91.39 0 0 1 467 205.68a118.1 102.79 0 0 1 .16.22 66.05 57.5 0 0 1 9.56 23.1 85.73 74.61 0 0 1 .83 10.48q0 21.1-12.62 38.1a81.64 71.06 0 0 1-26.34 22.1 102.3 89.04 0 0 1-9.76 4.59 113.17 98.5 0 0 1-30.6 8.08 151.08 131.5 0 0 1-24.05 1.6q-19.79 0-39.08-4.09a129.39 112.62 0 0 1-19.1-5.38 101.25 88.12 0 0 1-14.53-6.46 11.53 10.04 0 0 1-1.64-1.02q-1.2-.91-1.82-1.99-.99-1.72-.99-5.16h0z"/></g><g stroke="#000" id="svgGroup" stroke-linecap="round" fill-rule="evenodd" font-size="12" stroke-width=".94" fill="none"><path fill="#071722" stroke="null" d="m736.72 59.09 3.87 52.05q0 1.3-1.76 1.5a5.25 6.42 0 0 1-.24.03q-.89.06-1.37-.31a1.17 1.43 0 0 1-.5-.79 89.79 109.73 0 0 0-9.8-25.29 68.59 83.82 0 0 0-20.12-24.82q-20.77-16.57-49.99-16.57a94.37 115.33 0 0 0-23.32 3.39 75.66 92.47 0 0 0-21.38 11.02 75.58 92.37 0 0 0-28.4 39.03 90.97 111.17 0 0 0-.64 1.63q-10.03 26.24-10.03 60.65a147.53 180.3 0 0 0 5.99 51.96 133.42 163.05 0 0 0 6.68 21.6 120.57 147.35 0 0 0 16.55 32.52 101.35 123.86 0 0 0 17.77 20.6q21.65 19.58 47.34 19.58 48.81 0 70.86-65.8a155.96 190.6 0 0 0 1.66-5.18q0-1.12 1.06-1.27a3.08 3.76 0 0 1 .34-.02q1.06 0 1.94.43a2.1 2.56 0 0 1 .38.24q.5.4.5 1.05l-4.93 52.05a43.62 53.31 0 0 1-.32 2.09q-.5 3-1.1 4.26a3.01 3.68 0 0 1-.16.32q-.67 1.15-2.67 2.42a24.8 30.32 0 0 1-1.38.8q-32.38 15.5-66.18 15.5-37.52 0-64.11-16.2a103.02 125.9 0 0 1-6.99-4.67 118.39 144.68 0 0 1-25.38-24.55 98.93 120.9 0 0 1-16.5-28.58Q541 207.5 541 172.23q0-40.01 18.13-71.2a122.28 149.44 0 0 1 47.4-48.34 143.05 174.82 0 0 1 .47-.27Q636.75 35 670.54 35a191.27 233.75 0 0 1 27.01 2.41 216.06 264.05 0 0 1 6.43 1.25 145.4 177.7 0 0 1 11.03 2.84q9.73 3.03 16.43 7.27a15.44 18.86 0 0 1 1.43.98q1.63 1.28 2.26 2.67a7.84 9.58 0 0 1 .47 1.27q.44 1.42.83 3.6a44.61 54.52 0 0 1 .29 1.8h0z" vector-effect="non-scaling-stroke" id="svg_5"/></g></g></svg>